<?xml version="1.0" encoding="utf-8"?>
<svg id="Слой_1" data-name="Слой 1" viewBox="0 -0.825 532.779 237.025" xmlns="http://www.w3.org/2000/svg">
  <defs>
    <style>.cls-1,.cls-3,.cls-4{fill:#fff;}.cls-2{fill:#c4be44;}.cls-3{font-size:119px;letter-spacing:0.01em;}.cls-3,.cls-4{font-family:Candara-Bold, Candara;font-weight:700;}.cls-4{font-size:90px;letter-spacing:0.01em;}</style>
  </defs>
  <path class="cls-1" d="M488.45,350.83c0-.11,0-.36-.06-.6l-.08-.73c-.07-.51-.13-1-.21-1.52-.15-1-.31-2.07-.5-3.12-.37-2.1-.78-4.21-1.25-6.32-1-4.22-2-8.44-3.28-12.62a188,188,0,0,0-9.23-24.6,181.58,181.58,0,0,0-28.54-44.46,177.59,177.59,0,0,0-40.9-34.46,210,210,0,0,0-49.81-21.7A212,212,0,0,1,406.81,218a184.9,184.9,0,0,1,45.7,31.92,195.93,195.93,0,0,1,18.93,20.93,199.13,199.13,0,0,1,15.74,23.59,202.28,202.28,0,0,1,12.4,25.67c1.81,4.42,3.39,8.93,4.87,13.52.73,2.29,1.42,4.61,2.05,7,.33,1.17.63,2.36.92,3.57.15.6.28,1.23.43,1.84l.2,1c.07.32.13.64.21,1.09l.13.73a10,10,0,0,1-19.8,3.41A13.35,13.35,0,0,1,488.45,350.83Z" transform="translate(-151.19 -195.71)"/>
  <path class="cls-2" d="M427.63,312.23a5.57,5.57,0,0,0-.21-.54l-.27-.63-.57-1.31c-.39-.89-.81-1.78-1.23-2.67q-1.28-2.67-2.69-5.34c-1.88-3.54-3.85-7.06-6-10.5a207.84,207.84,0,0,0-13.89-20,212,212,0,0,0-16.17-18.4,215,215,0,0,0-18.3-16.45,202.71,202.71,0,0,0-20.24-14.18L342.74,219c-1.79-1-3.64-2-5.46-3l-2.74-1.47c-.93-.47-1.87-.9-2.8-1.36l-5.62-2.69a216.45,216.45,0,0,0-47.8-14.84,218.1,218.1,0,0,1,49.46,10.66l6,2.23c1,.38,2,.73,3,1.13l2.94,1.25c2,.85,3.94,1.64,5.88,2.54l5.77,2.76a208.57,208.57,0,0,1,22.27,12.8,227.8,227.8,0,0,1,20.66,15.48,228.06,228.06,0,0,1,35.47,37.86c2.61,3.49,5.08,7.1,7.48,10.78,1.2,1.85,2.37,3.72,3.5,5.64q.85,1.43,1.68,2.91l.83,1.51.42.79.45.88.17.33a9,9,0,0,1-16.12,8.18A10.68,10.68,0,0,1,427.63,312.23Z" transform="translate(-151.19 -195.71)"/>
  <path class="cls-1" d="M378.27,305.13c0-.09-.16-.31-.27-.51s-.22-.4-.34-.61c-.25-.43-.48-.85-.75-1.28-.51-.86-1.05-1.72-1.61-2.58-1.1-1.72-2.28-3.42-3.5-5.1-2.46-3.35-5.08-6.62-7.85-9.76a141.06,141.06,0,0,0-63.28-41,159,159,0,0,0-51.19-6.95,221,221,0,0,0-52,7.57,223.27,223.27,0,0,1,51.73-11.57,165.08,165.08,0,0,1,53.52,3.23,150.2,150.2,0,0,1,49.87,21.7,154.51,154.51,0,0,1,21.42,17.35q5,4.83,9.51,10.14c1.5,1.78,3,3.59,4.41,5.47.71.94,1.42,1.9,2.11,2.88.35.48.69,1,1,1.5l.52.79c.18.27.34.53.57.91l.26.43A8,8,0,0,1,378.71,306C378.56,305.72,378.4,305.41,378.27,305.13Z" transform="translate(-151.19 -195.71)"/>
  <path class="cls-1" d="M340.44,306.45s-.2-.19-.33-.31l-.43-.38c-.29-.26-.6-.52-.93-.79-.63-.53-1.31-1.05-2-1.57-1.37-1-2.78-2-4.22-3a104.71,104.71,0,0,0-9-5.4,122.89,122.89,0,0,0-19.61-8.37A141.26,141.26,0,0,0,283,281.49a161,161,0,0,0-21.65-1.94l-5.47,0-5.48.19c-.91.05-1.83.06-2.74.12l-2.73.23c-1.83.16-3.66.27-5.48.48-3.63.49-7.3.83-10.91,1.54l-5.45.94-5.4,1.18A242.82,242.82,0,0,0,175.43,298a244.87,244.87,0,0,1,41.33-17.15l5.39-1.63,5.47-1.4c3.63-1,7.34-1.65,11-2.45,1.85-.35,3.72-.62,5.58-.93L247,274c.94-.14,1.88-.23,2.82-.35,1.88-.21,3.76-.45,5.65-.64l5.68-.41a167.81,167.81,0,0,1,22.86.26,149.43,149.43,0,0,1,22.75,3.72A133.73,133.73,0,0,1,328.85,284a116.41,116.41,0,0,1,10.56,5.24q2.58,1.46,5.13,3.08c.84.56,1.68,1.1,2.53,1.71.42.29.84.59,1.27.91l.66.49c.23.18.42.33.74.6l.95.8a7.09,7.09,0,1,1-9.13,10.85A7,7,0,0,1,340.44,306.45Z" transform="translate(-151.19 -195.71)"/>
  <path class="cls-1" d="M288.16,318.85c-.06,0-.48-.21-.78-.32s-.69-.24-1-.37c-.71-.22-1.44-.45-2.19-.64-1.49-.4-3.06-.68-4.62-.95a60.62,60.62,0,0,0-9.66-.68,82.12,82.12,0,0,0-19.61,2.55,132.86,132.86,0,0,0-37.12,16.08l-4.35,2.71-4.26,2.88-2.13,1.45-2.08,1.52-4.15,3.05c-2.7,2.12-5.42,4.24-8.08,6.43l-3.93,3.35c-1.31,1.12-2.63,2.23-3.89,3.41a357.84,357.84,0,0,0-29.09,29.58,358.63,358.63,0,0,1,27.37-31.39c1.19-1.27,2.46-2.46,3.71-3.67l3.77-3.63c2.55-2.37,5.17-4.68,7.78-7l4-3.35,2-1.68,2.08-1.6,4.18-3.2,4.29-3a156.32,156.32,0,0,1,18.09-11,124.32,124.32,0,0,1,19.75-8.16,91.17,91.17,0,0,1,21.32-4.07,71,71,0,0,1,11.1.12c1.86.2,3.73.43,5.61.82.94.17,1.89.4,2.84.64.49.14.95.26,1.45.42s.92.28,1.65.58l.46.19a5,5,0,1,1-3.78,9.32A5.28,5.28,0,0,1,288.16,318.85Z" transform="translate(-151.19 -195.71)"/>
  <path class="cls-1" d="M254.8,371.32l-.26,0h-1.21l-1.72.06c-1.16,0-2.36.2-3.55.29a72.63,72.63,0,0,0-7.19,1.25c-2.41.44-4.77,1.23-7.17,1.86s-4.71,1.61-7.08,2.41a141.87,141.87,0,0,0-26.82,14c-2.11,1.43-4.28,2.77-6.34,4.28l-6.12,4.63c-1,.78-2.06,1.52-3,2.35l-2.92,2.49-5.85,5c-1.93,1.7-3.73,3.54-5.6,5.3l-5.57,5.36L153.8,431.91l9.63-12.17,5.15-5.82c1.73-1.92,3.4-3.92,5.2-5.79l5.5-5.53,2.75-2.77c.93-.92,1.93-1.74,2.89-2.62l5.85-5.22c2-1.71,4.08-3.26,6.13-4.9a147.86,147.86,0,0,1,26.76-16.83c2.44-1.06,4.86-2.2,7.35-3.19s5-1.94,7.64-2.66,5.24-1.46,7.94-2c1.37-.22,2.71-.52,4.13-.68.71-.08,1.41-.18,2.13-.24l1.13-.08.58,0h.7a5,5,0,0,1,.11,10l-.45,0Z" transform="translate(-151.19 -195.71)"/>
  <path class="cls-1" d="M530.85,370.86c-1.78-5.42-10.65-7.38-19.8-4.37s-15.13,9.84-13.34,15.26,10.64,7.38,19.79,4.38S532.63,376.29,530.85,370.86Zm-14.25,9.61c-3.53,1.16-7,.39-7.64-1.72s1.6-4.76,5.13-5.92,6.94-.38,7.64,1.72S520.12,379.31,516.6,380.47Z" transform="translate(-151.19 -195.71)"/>
  <text class="cls-3" style="white-space: pre;" transform="translate(127.13 189.76)">ежа</text>
  <text class="cls-4" transform="translate(392.43 189.77)" style="white-space: pre;">бел</text>
</svg>